<?xml version="1.0" standalone="no"?>
<!DOCTYPE svg PUBLIC "-//W3C//DTD SVG 20010904//EN"
 "http://www.w3.org/TR/2001/REC-SVG-20010904/DTD/svg10.dtd">
<svg version="1.0" xmlns="http://www.w3.org/2000/svg"
 width="415.000000pt" height="415.000000pt" viewBox="0 0 415.000000 415.000000"
 preserveAspectRatio="xMidYMid meet">
<metadata>
Created by potrace 1.14, written by Peter Selinger 2001-2017
</metadata>
<g transform="translate(0.000000,415.000000) scale(0.100000,-0.100000)"
fill="#000000" stroke="none">
<path d="M1375 3966 c-44 -19 -140 -125 -155 -170 -17 -51 -9 -121 21 -180 29
-60 57 -82 126 -102 l53 -15 0 -144 0 -144 -42 -5 c-24 -3 -70 -8 -103 -11
-33 -3 -70 -13 -83 -21 -50 -33 -52 -48 -45 -505 3 -233 3 -481 -1 -550 l-8
-127 -66 -7 c-158 -16 -172 -29 -172 -159 l0 -89 -142 7 c-174 9 -327 21 -333
27 -4 5 -31 491 -40 759 -8 197 -17 232 -71 258 -42 20 -89 8 -117 -31 l-21
-27 22 -452 c13 -249 23 -478 23 -508 0 -79 27 -150 64 -172 34 -19 238 -43
471 -54 l142 -6 4 -632 c4 -570 6 -634 21 -663 10 -18 26 -37 36 -43 35 -18
88 -12 118 14 25 22 28 30 27 88 -1 34 -5 383 -9 774 -7 643 -6 711 8 717 18
7 152 21 367 39 176 15 1103 17 1392 4 l176 -8 6 -92 c3 -50 13 -307 21 -571
28 -828 28 -832 51 -855 11 -11 34 -24 51 -29 39 -11 91 12 111 49 14 27 14 8
-13 740 -8 212 -15 404 -15 428 l0 42 73 0 c97 0 328 18 402 31 111 20 123 47
136 303 5 105 16 332 24 504 18 342 16 354 -37 380 -37 17 -90 6 -119 -24 -22
-23 -24 -37 -35 -262 -7 -130 -18 -344 -25 -474 l-12 -237 -36 -5 c-65 -10
-362 -27 -372 -21 -5 4 -9 51 -9 106 0 151 -23 189 -113 189 l-43 0 -22 248
c-12 136 -29 346 -38 467 -33 478 -29 445 -57 472 -33 33 -84 42 -249 43
l-138 0 3 124 2 124 34 18 c56 30 86 87 86 158 -1 99 -65 190 -165 235 -113
51 -236 -5 -296 -134 -56 -118 -5 -225 129 -273 l47 -17 0 -117 0 -118 -37 0
c-62 0 -538 -19 -670 -26 l-123 -6 0 144 0 144 50 49 c50 49 90 129 90 179 0
41 -32 123 -61 159 -45 54 -102 77 -190 77 -41 -1 -87 -7 -104 -14z m163 -158
c18 -18 15 -123 -3 -138 -19 -16 -117 -9 -139 9 -27 23 -20 71 16 108 26 27
40 33 73 33 23 0 46 -5 53 -12z m989 -83 c29 -34 29 -53 -1 -65 -42 -16 -107
8 -124 45 -26 58 79 75 125 20z m285 -780 c7 -91 41 -534 65 -842 l6 -71 -184
4 c-101 2 -275 6 -386 8 -208 4 -734 -7 -883 -19 l-85 -7 0 496 c0 333 3 496
10 496 5 0 100 7 210 15 332 26 513 32 885 31 l355 -1 7 -110z"/>
<path d="M2373 2783 c-34 -7 -63 -50 -63 -95 0 -81 91 -127 153 -78 55 43 43
140 -19 166 -19 8 -37 13 -41 13 -4 -1 -18 -4 -30 -6z"/>
<path d="M1685 2748 c-33 -17 -45 -40 -45 -81 0 -51 15 -76 54 -92 84 -35 164
52 122 133 -9 17 -25 36 -35 42 -25 13 -71 12 -96 -2z"/>
<path d="M1703 2385 c-30 -30 -34 -40 -31 -76 4 -62 29 -75 171 -94 169 -22
476 -37 587 -29 85 6 97 10 122 35 35 34 38 93 9 131 l-20 25 -258 6 c-142 4
-310 14 -373 22 -162 21 -166 21 -207 -20z"/>
<path d="M1842 1634 c-24 -10 -32 -21 -38 -48 -12 -64 41 -114 99 -94 33 12
47 35 47 81 0 56 -51 85 -108 61z"/>
<path d="M2330 1640 c-13 -3 -33 -20 -43 -37 -16 -28 -17 -35 -4 -66 25 -59
95 -67 131 -15 44 62 -9 137 -84 118z"/>
<path d="M1445 1628 c-31 -16 -45 -39 -45 -71 0 -40 14 -62 49 -76 38 -16 85
6 99 47 13 38 -8 89 -43 102 -32 12 -35 12 -60 -2z"/>
<path d="M2264 1200 c-126 -3 -186 -9 -197 -18 -38 -32 -27 -110 19 -131 29
-13 416 -14 558 -2 80 7 92 11 113 35 29 34 29 65 2 100 l-20 26 -147 -2 c-81
-1 -228 -5 -328 -8z"/>
<path d="M1310 1162 l-38 -37 -7 -246 c-6 -214 -5 -249 8 -276 9 -17 24 -33
33 -37 33 -13 213 -28 349 -29 120 -2 145 1 168 16 35 23 36 -17 -12 516 -12
136 -2 131 -258 131 l-205 0 -38 -38z m340 -134 c0 -26 20 -254 25 -290 l5
-38 -63 0 c-35 0 -92 3 -126 6 l-61 7 0 163 0 164 110 0 c81 0 110 -3 110 -12z"/>
<path d="M2670 853 c-19 -2 -160 -7 -313 -12 -304 -10 -319 -13 -332 -70 -10
-45 17 -89 60 -97 45 -8 611 15 640 26 27 10 55 47 55 72 0 55 -41 86 -110 81z"/>
</g>
</svg>
