<?xml version="1.0" standalone="no"?>
<!DOCTYPE svg PUBLIC "-//W3C//DTD SVG 20010904//EN"
 "http://www.w3.org/TR/2001/REC-SVG-20010904/DTD/svg10.dtd">
<svg version="1.0" xmlns="http://www.w3.org/2000/svg"
 width="512.000000pt" height="512.000000pt" viewBox="0 0 512.000000 512.000000"
 preserveAspectRatio="xMidYMid meet">
<metadata>
Created by potrace 1.14, written by Peter Selinger 2001-2017
</metadata>
<g transform="translate(0.000000,512.000000) scale(0.100000,-0.100000)"
fill="#000000" stroke="none">
<path d="M1701 5101 c-70 -25 -170 -123 -213 -208 -27 -55 -30 -70 -26 -130 4
-82 42 -167 98 -223 29 -29 52 -41 109 -55 l71 -17 0 -189 0 -189 -22 0 c-13
-1 -74 -7 -136 -14 -120 -14 -146 -25 -186 -80 -21 -27 -21 -36 -21 -766 0
-406 -3 -741 -7 -745 -4 -4 -61 -15 -127 -25 -127 -18 -166 -34 -181 -76 -6
-14 -10 -77 -10 -140 l0 -114 -112 0 c-245 0 -653 -40 -703 -68 -17 -10 -40
-38 -53 -64 -27 -54 -28 -57 -67 -943 -14 -314 -30 -657 -36 -762 -11 -216 -9
-231 50 -270 42 -28 89 -29 140 -3 75 38 69 -14 116 1045 14 308 28 606 31
661 l7 102 61 6 c129 13 336 25 446 27 l115 1 -3 -238 c-4 -333 17 -1411 28
-1454 22 -81 123 -125 198 -86 67 35 64 -3 51 683 -15 769 -6 1430 20 1437 30
9 415 45 586 55 327 20 734 24 1245 12 283 -6 563 -14 621 -17 l106 -6 6 -216
c16 -524 48 -1461 55 -1611 l8 -163 37 -34 c32 -29 44 -34 87 -34 65 0 103 20
124 64 18 38 18 58 -19 1084 -8 227 -15 438 -15 468 l0 54 63 0 c61 0 275 -14
393 -26 l61 -6 7 -102 c3 -55 17 -353 31 -661 40 -889 44 -966 63 -998 21 -36
80 -67 125 -67 19 0 49 10 68 23 58 39 61 53 49 269 -5 106 -21 449 -35 763
-40 887 -40 889 -67 943 -13 26 -36 54 -53 64 -38 21 -233 45 -507 60 l-206
12 -7 146 c-4 92 -11 157 -20 178 -22 49 -69 73 -135 70 l-55 -3 -12 135 c-19
210 -60 743 -83 1080 -29 423 -12 401 -323 411 -116 4 -220 8 -229 8 -16 1
-18 15 -15 161 l2 160 28 11 c42 18 104 85 123 135 22 57 15 151 -17 219 -34
75 -131 167 -202 193 -114 43 -213 22 -306 -63 -95 -89 -139 -210 -112 -311
21 -77 114 -159 214 -189 l42 -12 0 -52 c-1 -28 -2 -98 -3 -154 l-2 -104 -307
-6 c-289 -6 -561 -19 -715 -33 l-68 -6 0 189 0 189 70 69 c89 88 114 142 114
245 -1 128 -67 236 -180 290 -68 33 -197 38 -273 11z m202 -233 c26 -30 24
-137 -3 -166 -24 -25 -24 -25 -110 -11 -77 12 -100 30 -100 77 0 27 9 43 43
77 23 23 49 45 57 48 28 11 95 -4 113 -25z m1288 -81 c45 -30 61 -74 34 -93
-53 -39 -185 12 -185 73 0 46 94 59 151 20z m384 -909 c3 -3 17 -162 30 -354
24 -325 56 -736 74 -916 l7 -76 -721 5 c-673 5 -885 1 -1235 -24 l-85 -6 0
651 0 652 25 4 c87 18 692 55 1051 66 295 8 845 7 854 -2z"/>
<path d="M2993 3516 c-89 -40 -96 -184 -11 -236 113 -68 236 49 184 175 -26
61 -108 90 -173 61z"/>
<path d="M2078 3467 c-51 -43 -63 -108 -32 -173 21 -43 59 -64 118 -64 85 0
143 84 117 169 -17 59 -61 91 -124 91 -39 0 -59 -6 -79 -23z"/>
<path d="M2610 3049 c-177 -14 -419 -48 -449 -64 -73 -37 -63 -160 17 -220 33
-25 84 -25 272 0 94 12 236 19 465 22 359 6 371 8 400 63 31 60 10 151 -43
187 -24 16 -54 18 -287 19 -143 1 -312 -2 -375 -7z"/>
<path d="M2323 2013 c-32 -6 -72 -50 -79 -88 -12 -66 43 -135 108 -135 33 0
87 36 98 66 35 91 -32 174 -127 157z"/>
<path d="M2955 2013 c-29 -7 -56 -34 -72 -71 -34 -80 39 -166 126 -147 83 18
110 153 39 199 -28 18 -66 26 -93 19z"/>
<path d="M1748 1971 c-29 -26 -33 -35 -33 -81 0 -46 4 -55 33 -81 60 -54 147
-31 172 46 36 108 -88 191 -172 116z"/>
<path d="M2962 1430 l-334 -5 -29 -33 c-41 -46 -41 -108 0 -154 l29 -33 134
-3 c217 -5 699 14 731 29 36 16 57 57 57 109 0 33 -6 48 -29 71 -29 28 -31 29
-128 27 -54 -1 -248 -5 -431 -8z"/>
<path d="M1650 1417 c-29 -16 -86 -71 -100 -97 -6 -10 -10 -90 -11 -177 0 -87
-4 -228 -8 -313 -8 -138 -6 -160 9 -197 10 -23 29 -48 42 -56 35 -23 237 -41
468 -41 283 -1 282 -2 262 209 -7 66 -21 229 -32 363 -11 133 -24 250 -29 260
-5 9 -19 26 -31 37 -21 19 -39 20 -284 23 -204 2 -266 0 -286 -11z m404 -289
c4 -40 12 -140 19 -221 7 -82 11 -150 7 -151 -7 -4 -320 11 -323 15 -2 2 -1
100 1 217 l4 212 143 0 143 0 6 -72z"/>
<path d="M3130 949 c-74 -3 -215 -7 -313 -8 -191 -1 -230 -9 -261 -52 -42 -61
-2 -161 70 -175 37 -7 635 13 778 26 84 7 92 10 118 39 38 43 39 106 2 150
l-26 31 -116 -2 c-65 -1 -178 -5 -252 -9z"/>
</g>
</svg>
